<svg xmlns="http://www.w3.org/2000/svg" width="1200" height="510" viewBox="0 0 1200 510">
<defs><filter id="g"><feGaussianBlur stdDeviation="3" result="b"/><feMerge><feMergeNode in="b"/><feMergeNode in="SourceGraphic"/></feMerge></filter><linearGradient id="n"><stop stop-color="#00ff88"/><stop offset=".5" stop-color="#00e5ff"/><stop offset="1" stop-color="#00ff88"/></linearGradient></defs>
<rect width="1200" height="510" rx="18" fill="#020605" stroke="#0b6345"/><text x="35" y="38" fill="#00ff88" font-family="monospace" font-size="13" letter-spacing="3">TECH MATRIX // MODULE REGISTRY</text>
<g font-family="monospace"><text x="45" y="82" fill="#00e5ff" font-size="12">LANGUAGES</text><text x="45" y="111" fill="#eafff4" font-size="16">Python   C   JavaScript   HTML   CSS</text>
<text x="45" y="153" fill="#00e5ff" font-size="12">FRONTEND</text><text x="45" y="182" fill="#eafff4" font-size="16">React   Next.js   Tailwind   Vite   Three.js</text>
<text x="45" y="224" fill="#00e5ff" font-size="12">BACKEND / DATA</text><text x="45" y="253" fill="#eafff4" font-size="16">FastAPI   Flask   Node.js   MongoDB   PostgreSQL</text><text x="45" y="279" fill="#eafff4" font-size="16">SQLite   Firebase</text>
<text x="45" y="321" fill="#00e5ff" font-size="12">AI / DATA SIGNAL</text><text x="45" y="351" fill="#b9d2c6" font-size="13">Machine Learning</text><rect x="230" y="342" width="700" height="12" rx="6" fill="#0a2118"/><rect x="230" y="342" width="470" height="12" rx="6" fill="url(#n)"><animate attributeName="width" values="350;600;470" dur="3s" repeatCount="indefinite"/></rect>
<text x="45" y="383" fill="#b9d2c6" font-size="13">Generative AI</text><rect x="230" y="374" width="700" height="12" rx="6" fill="#0a2118"/><rect x="230" y="374" width="390" height="12" rx="6" fill="url(#n)"><animate attributeName="width" values="280;500;390" dur="3.2s" repeatCount="indefinite"/></rect>
<text x="45" y="415" fill="#b9d2c6" font-size="13">RAG / LLM Systems</text><rect x="230" y="406" width="700" height="12" rx="6" fill="#0a2118"/><rect x="230" y="406" width="320" height="12" rx="6" fill="url(#n)"><animate attributeName="width" values="220;430;320" dur="2.8s" repeatCount="indefinite"/></rect>
<text x="45" y="466" fill="#55786a" font-size="11">CLOUD :: VERCEL / AZURE</text><text x="1145" y="466" text-anchor="end" fill="#55786a" font-size="11">REGISTRY :: ACTIVE</text></g></svg>